<?xml version="1.0" encoding="UTF-8"?>
<svg id="Capa_2" data-name="Capa 2" xmlns="http://www.w3.org/2000/svg" viewBox="0 0 424.2 918">
  <defs>
    <style>
      .cls-1 {
        fill: #fff;
        stroke-width: 0px;
      }
    </style>
  </defs>
  <polygon class="cls-1" points="15.26 474.12 28.04 474.12 29.3 447 38.84 474.12 46.04 474.12 55.94 445.68 57.38 474.12 68.9 474.12 64.94 425.7 52.88 425.7 43.16 452.52 32.36 425.7 19.58 425.7 15.26 474.12"/>
  <path class="cls-1" d="M99.91,424.08c-14.27,0-24.84,11.56-24.84,25.83s10.57,25.83,24.84,25.83,24.12-11.56,24.12-25.83-9.85-25.83-24.12-25.83ZM99.55,464.41c-6.63,0-12-6.49-12-14.5s5.37-14.5,12-14.5,12,6.49,12,14.5-5.37,14.5-12,14.5Z"/>
  <path class="cls-1" d="M105.71,449.18l-11.48-6.63c-.57-.33-1.28.08-1.28.74v13.25c0,.66.71,1.07,1.28.74l11.48-6.63c.57-.33.57-1.15,0-1.48Z"/>
  <polygon class="cls-1" points="126.68 425.7 140.18 425.7 151.52 455.94 162.86 425.7 176.54 425.7 156.38 474.12 146.84 474.12 126.68 425.7"/>
  <rect class="cls-1" x="181.76" y="425.7" width="11.34" height="48.42"/>
  <polygon class="cls-1" points="204.26 425.7 204.26 474.12 232.16 474.12 232.16 463.68 215.06 463.86 215.06 454.5 232.16 454.32 232.16 444.42 215.24 444.24 215.24 435.06 232.16 435.06 232.16 425.7 204.26 425.7"/>
  <path class="cls-1" d="M264.56,425.7h-22.5v48.42h11.52v-17.1l10.62-.18s11.88-2.16,11.88-16.2-11.52-14.94-11.52-14.94ZM253.04,447v-12.48c1.98.54,11.52-1.54,11.52,6.02,0,8.38-11.52,6.46-11.52,6.46Z"/>
  <polygon class="cls-1" points="285.08 425.7 285.08 474.12 312.44 474.12 312.44 463.86 295.88 463.86 295.88 425.7 285.08 425.7"/>
  <path class="cls-1" d="M346.82,425.7h-10.8l-20.34,48.42h13.32l3.78-10.26h16.38l3.6,10.26h13.68l-19.62-48.42ZM336.02,453.96l5.22-12.42,5.22,12.42h-10.44Z"/>
  <polygon class="cls-1" points="383.18 474.12 395.06 474.12 395.06 451.98 412.7 425.7 398.66 425.7 389.3 440.64 379.94 425.7 365.36 425.7 383.54 451.62 383.18 474.12"/>
</svg>